# xmcd
#
# Track frame offsets:
#	150
#	23942
#	41564
#	60640
#	82582
#	104278
#	121844
#	139982
#	158825
#	169565
#	187068
#
# Disc length: 2788 seconds
#
# Revision: 0
# Processed by: cddbd v1.5.1PL2 Copyright (c) Steve Scherf et al.
# Submitted via: dBpowerAMP V4.0
#
DISCID=870ae20b
DTITLE=Ministry Of Song - Hot Live And More
DYEAR=2005
DGENRE=Gospel
TTITLE0=Celebration
TTITLE1=I Will Be There for You
TTITLE2=Love Train
TTITLE3=A Happy Song
TTITLE4=Better Days Ahead
TTITLE5=Stay
TTITLE6=Throug the Fire
TTITLE7=Superstition
TTITLE8=Blackbird
TTITLE9=I Owe It All to  You
TTITLE10=Home
EXTD=by Lulu B.
EXTT0=
EXTT1=
EXTT2=
EXTT3=
EXTT4=
EXTT5=
EXTT6=
EXTT7=
EXTT8=
EXTT9=
EXTT10=
PLAYORDER=
